STARTFONT 2.1
FONT -FontForge-Everyday_Standard_Blocky_Black-Book-R-Normal--6-60-75-75-P-58-ISO10646-1
SIZE 6 75 75
FONTBOUNDINGBOX 8 11 0 -2
COMMENT "Generated by fontforge, http://fontforge.sourceforge.net"
STARTPROPERTIES 38
FOUNDRY "FontForge"
FAMILY_NAME "Everyday_Standard_Blocky_Black"
WEIGHT_NAME "Book"
SLANT "R"
SETWIDTH_NAME "Normal"
ADD_STYLE_NAME ""
PIXEL_SIZE 6
POINT_SIZE 60
RESOLUTION_X 75
RESOLUTION_Y 75
SPACING "P"
AVERAGE_WIDTH 58
CHARSET_REGISTRY "ISO10646"
CHARSET_ENCODING "1"
FONTNAME_REGISTRY ""
CHARSET_COLLECTIONS "ISO10646-1"
FONT_NAME "Everyday_Standard_Blocky_Black"
FACE_NAME "Everyday_Standard_Blocky_Black Regular"
FONT_VERSION "1.0"
FONT_ASCENT 4
FONT_DESCENT 2
UNDERLINE_POSITION 0
UNDERLINE_THICKNESS 1
X_HEIGHT 4
CAP_HEIGHT 5
RAW_ASCENT 799
RAW_DESCENT 200
NORM_SPACE 5
RELATIVE_WEIGHT 40
RELATIVE_SETWIDTH 50
SUPERSCRIPT_X 0
SUPERSCRIPT_Y 3
SUPERSCRIPT_SIZE 3
SUBSCRIPT_X 0
SUBSCRIPT_Y -1
SUBSCRIPT_SIZE 3
AVG_LOWERCASE_WIDTH 60
AVG_UPPERCASE_WIDTH 62
ENDPROPERTIES
CHARS 165
STARTCHAR uni000D
ENCODING 13
SWIDTH 166 0
DWIDTH 1 0
BBX 1 1 0 0
BITMAP
00
ENDCHAR
STARTCHAR space
ENCODING 32
SWIDTH 833 0
DWIDTH 5 0
BBX 1 1 0 0
BITMAP
00
ENDCHAR
STARTCHAR exclam
ENCODING 33
SWIDTH 500 0
DWIDTH 3 0
BBX 2 6 0 0
BITMAP
C0
C0
C0
C0
00
C0
ENDCHAR
STARTCHAR quotedbl
ENCODING 34
SWIDTH 666 0
DWIDTH 4 0
BBX 3 2 0 4
BITMAP
A0
A0
ENDCHAR
STARTCHAR numbersign
ENCODING 35
SWIDTH 1333 0
DWIDTH 8 0
BBX 7 6 0 0
BITMAP
6C
FE
6C
6C
FE
6C
ENDCHAR
STARTCHAR dollar
ENCODING 36
SWIDTH 1000 0
DWIDTH 6 0
BBX 5 6 0 0
BITMAP
F8
D0
F8
F8
58
F8
ENDCHAR
STARTCHAR percent
ENCODING 37
SWIDTH 1166 0
DWIDTH 7 0
BBX 6 6 0 0
BITMAP
CC
DC
38
70
EC
CC
ENDCHAR
STARTCHAR ampersand
ENCODING 38
SWIDTH 1166 0
DWIDTH 7 0
BBX 6 6 0 0
BITMAP
F0
D0
74
DC
D8
F0
ENDCHAR
STARTCHAR quotesingle
ENCODING 39
SWIDTH 333 0
DWIDTH 2 0
BBX 1 2 0 4
BITMAP
80
80
ENDCHAR
STARTCHAR parenleft
ENCODING 40
SWIDTH 833 0
DWIDTH 5 0
BBX 4 7 0 -1
BITMAP
F0
C0
C0
C0
C0
60
30
ENDCHAR
STARTCHAR parenright
ENCODING 41
SWIDTH 833 0
DWIDTH 5 0
BBX 4 7 0 -1
BITMAP
C0
60
30
30
30
30
F0
ENDCHAR
STARTCHAR asterisk
ENCODING 42
SWIDTH 1166 0
DWIDTH 7 0
BBX 6 5 0 0
BITMAP
30
B4
78
B4
30
ENDCHAR
STARTCHAR plus
ENCODING 43
SWIDTH 1166 0
DWIDTH 7 0
BBX 6 5 0 0
BITMAP
30
30
FC
30
30
ENDCHAR
STARTCHAR comma
ENCODING 44
SWIDTH 666 0
DWIDTH 4 0
BBX 3 2 0 -1
BITMAP
60
C0
ENDCHAR
STARTCHAR hyphen
ENCODING 45
SWIDTH 833 0
DWIDTH 5 0
BBX 4 1 0 2
BITMAP
F0
ENDCHAR
STARTCHAR period
ENCODING 46
SWIDTH 500 0
DWIDTH 3 0
BBX 2 1 0 0
BITMAP
C0
ENDCHAR
STARTCHAR slash
ENCODING 47
SWIDTH 1166 0
DWIDTH 7 0
BBX 6 6 0 0
BITMAP
0C
1C
38
70
E0
C0
ENDCHAR
STARTCHAR zero
ENCODING 48
SWIDTH 1000 0
DWIDTH 6 0
BBX 5 6 0 0
BITMAP
F8
D8
F8
F8
D8
F8
ENDCHAR
STARTCHAR one
ENCODING 49
SWIDTH 666 0
DWIDTH 4 0
BBX 3 6 0 0
BITMAP
60
E0
60
60
60
60
ENDCHAR
STARTCHAR two
ENCODING 50
SWIDTH 1000 0
DWIDTH 6 0
BBX 5 6 0 0
BITMAP
F0
18
F8
C0
C0
F8
ENDCHAR
STARTCHAR three
ENCODING 51
SWIDTH 1000 0
DWIDTH 6 0
BBX 5 6 0 0
BITMAP
F8
18
70
18
18
F8
ENDCHAR
STARTCHAR four
ENCODING 52
SWIDTH 1000 0
DWIDTH 6 0
BBX 5 6 0 0
BITMAP
D8
D8
D8
F8
18
18
ENDCHAR
STARTCHAR five
ENCODING 53
SWIDTH 1000 0
DWIDTH 6 0
BBX 5 6 0 0
BITMAP
F8
C0
F8
18
18
F0
ENDCHAR
STARTCHAR six
ENCODING 54
SWIDTH 1000 0
DWIDTH 6 0
BBX 5 6 0 0
BITMAP
F0
C0
F8
D8
D8
F8
ENDCHAR
STARTCHAR seven
ENCODING 55
SWIDTH 1000 0
DWIDTH 6 0
BBX 5 6 0 0
BITMAP
F8
18
18
30
30
30
ENDCHAR
STARTCHAR eight
ENCODING 56
SWIDTH 1000 0
DWIDTH 6 0
BBX 5 6 0 0
BITMAP
F8
D8
F8
D8
D8
F8
ENDCHAR
STARTCHAR nine
ENCODING 57
SWIDTH 1000 0
DWIDTH 6 0
BBX 5 6 0 0
BITMAP
F8
D8
D8
F8
18
78
ENDCHAR
STARTCHAR colon
ENCODING 58
SWIDTH 500 0
DWIDTH 3 0
BBX 2 4 0 0
BITMAP
C0
00
00
C0
ENDCHAR
STARTCHAR semicolon
ENCODING 59
SWIDTH 666 0
DWIDTH 4 0
BBX 3 5 0 -1
BITMAP
60
00
00
60
C0
ENDCHAR
STARTCHAR less
ENCODING 60
SWIDTH 833 0
DWIDTH 5 0
BBX 4 5 0 0
BITMAP
30
60
C0
C0
F0
ENDCHAR
STARTCHAR equal
ENCODING 61
SWIDTH 833 0
DWIDTH 5 0
BBX 4 3 0 1
BITMAP
F0
00
F0
ENDCHAR
STARTCHAR greater
ENCODING 62
SWIDTH 833 0
DWIDTH 5 0
BBX 4 5 0 0
BITMAP
F0
30
30
60
C0
ENDCHAR
STARTCHAR question
ENCODING 63
SWIDTH 1000 0
DWIDTH 6 0
BBX 5 6 0 0
BITMAP
F8
18
18
78
00
60
ENDCHAR
STARTCHAR at
ENCODING 64
SWIDTH 1166 0
DWIDTH 7 0
BBX 6 6 0 0
BITMAP
FC
CC
CC
DC
C0
F8
ENDCHAR
STARTCHAR A
ENCODING 65
SWIDTH 1000 0
DWIDTH 6 0
BBX 5 6 0 0
BITMAP
F8
D8
D8
F8
D8
D8
ENDCHAR
STARTCHAR B
ENCODING 66
SWIDTH 1000 0
DWIDTH 6 0
BBX 5 6 0 0
BITMAP
F8
D8
F0
D8
D8
F8
ENDCHAR
STARTCHAR C
ENCODING 67
SWIDTH 1000 0
DWIDTH 6 0
BBX 5 6 0 0
BITMAP
F8
D8
C0
C0
D8
F8
ENDCHAR
STARTCHAR D
ENCODING 68
SWIDTH 1000 0
DWIDTH 6 0
BBX 5 6 0 0
BITMAP
F0
D8
D8
D8
D8
F8
ENDCHAR
STARTCHAR E
ENCODING 69
SWIDTH 1000 0
DWIDTH 6 0
BBX 5 6 0 0
BITMAP
F8
C0
F0
C0
C0
F8
ENDCHAR
STARTCHAR F
ENCODING 70
SWIDTH 1000 0
DWIDTH 6 0
BBX 5 6 0 0
BITMAP
F8
C0
F0
C0
C0
C0
ENDCHAR
STARTCHAR G
ENCODING 71
SWIDTH 1000 0
DWIDTH 6 0
BBX 5 6 0 0
BITMAP
F8
C0
D8
D8
D8
F8
ENDCHAR
STARTCHAR H
ENCODING 72
SWIDTH 1000 0
DWIDTH 6 0
BBX 5 6 0 0
BITMAP
D8
D8
D8
F8
D8
D8
ENDCHAR
STARTCHAR I
ENCODING 73
SWIDTH 833 0
DWIDTH 5 0
BBX 4 6 0 0
BITMAP
F0
60
60
60
60
F0
ENDCHAR
STARTCHAR J
ENCODING 74
SWIDTH 1000 0
DWIDTH 6 0
BBX 5 6 0 0
BITMAP
78
18
18
18
D8
F8
ENDCHAR
STARTCHAR K
ENCODING 75
SWIDTH 1000 0
DWIDTH 6 0
BBX 5 6 0 0
BITMAP
D8
D8
F0
D8
D8
D8
ENDCHAR
STARTCHAR L
ENCODING 76
SWIDTH 1000 0
DWIDTH 6 0
BBX 5 6 0 0
BITMAP
C0
C0
C0
C0
C0
F8
ENDCHAR
STARTCHAR M
ENCODING 77
SWIDTH 1500 0
DWIDTH 9 0
BBX 8 6 0 0
BITMAP
E7
DB
DB
DB
DB
C3
ENDCHAR
STARTCHAR N
ENCODING 78
SWIDTH 1000 0
DWIDTH 6 0
BBX 5 6 0 0
BITMAP
F8
D8
D8
D8
D8
D8
ENDCHAR
STARTCHAR O
ENCODING 79
SWIDTH 1000 0
DWIDTH 6 0
BBX 5 6 0 0
BITMAP
F8
D8
D8
D8
D8
F8
ENDCHAR
STARTCHAR P
ENCODING 80
SWIDTH 1000 0
DWIDTH 6 0
BBX 5 6 0 0
BITMAP
F8
D8
D8
D8
F8
C0
ENDCHAR
STARTCHAR Q
ENCODING 81
SWIDTH 1166 0
DWIDTH 7 0
BBX 6 6 0 0
BITMAP
F8
D8
D8
D8
D8
FC
ENDCHAR
STARTCHAR R
ENCODING 82
SWIDTH 1000 0
DWIDTH 6 0
BBX 5 6 0 0
BITMAP
F8
D8
D8
F0
D8
D8
ENDCHAR
STARTCHAR S
ENCODING 83
SWIDTH 1000 0
DWIDTH 6 0
BBX 5 6 0 0
BITMAP
F8
C0
F8
18
18
F8
ENDCHAR
STARTCHAR T
ENCODING 84
SWIDTH 1166 0
DWIDTH 7 0
BBX 6 6 0 0
BITMAP
FC
30
30
30
30
30
ENDCHAR
STARTCHAR U
ENCODING 85
SWIDTH 1000 0
DWIDTH 6 0
BBX 5 6 0 0
BITMAP
D8
D8
D8
D8
D8
F8
ENDCHAR
STARTCHAR V
ENCODING 86
SWIDTH 1166 0
DWIDTH 7 0
BBX 6 6 0 0
BITMAP
CC
CC
CC
D8
F0
E0
ENDCHAR
STARTCHAR W
ENCODING 87
SWIDTH 1500 0
DWIDTH 9 0
BBX 8 6 0 0
BITMAP
C3
DB
DB
DB
DB
E7
ENDCHAR
STARTCHAR X
ENCODING 88
SWIDTH 1000 0
DWIDTH 6 0
BBX 5 6 0 0
BITMAP
D8
D8
D8
70
D8
D8
ENDCHAR
STARTCHAR Y
ENCODING 89
SWIDTH 1166 0
DWIDTH 7 0
BBX 6 6 0 0
BITMAP
CC
CC
FC
30
30
30
ENDCHAR
STARTCHAR Z
ENCODING 90
SWIDTH 1000 0
DWIDTH 6 0
BBX 5 6 0 0
BITMAP
F8
18
F8
C0
C0
F8
ENDCHAR
STARTCHAR bracketleft
ENCODING 91
SWIDTH 833 0
DWIDTH 5 0
BBX 4 7 0 -1
BITMAP
F0
C0
C0
C0
C0
C0
F0
ENDCHAR
STARTCHAR backslash
ENCODING 92
SWIDTH 1166 0
DWIDTH 7 0
BBX 6 6 0 0
BITMAP
C0
E0
70
38
1C
0C
ENDCHAR
STARTCHAR bracketright
ENCODING 93
SWIDTH 833 0
DWIDTH 5 0
BBX 4 7 0 -1
BITMAP
F0
30
30
30
30
30
F0
ENDCHAR
STARTCHAR asciicircum
ENCODING 94
SWIDTH 1000 0
DWIDTH 6 0
BBX 5 3 0 3
BITMAP
38
78
D8
ENDCHAR
STARTCHAR underscore
ENCODING 95
SWIDTH 1166 0
DWIDTH 7 0
BBX 6 1 0 0
BITMAP
FC
ENDCHAR
STARTCHAR grave
ENCODING 96
SWIDTH 666 0
DWIDTH 4 0
BBX 3 2 0 4
BITMAP
C0
60
ENDCHAR
STARTCHAR a
ENCODING 97
SWIDTH 1000 0
DWIDTH 6 0
BBX 5 5 0 0
BITMAP
78
18
F8
D8
F8
ENDCHAR
STARTCHAR b
ENCODING 98
SWIDTH 1000 0
DWIDTH 6 0
BBX 5 6 0 0
BITMAP
C0
F8
D8
D8
D8
F8
ENDCHAR
STARTCHAR c
ENCODING 99
SWIDTH 1000 0
DWIDTH 6 0
BBX 5 5 0 0
BITMAP
F0
C0
C0
C0
F8
ENDCHAR
STARTCHAR d
ENCODING 100
SWIDTH 1000 0
DWIDTH 6 0
BBX 5 6 0 0
BITMAP
18
F8
D8
D8
D8
F8
ENDCHAR
STARTCHAR e
ENCODING 101
SWIDTH 1000 0
DWIDTH 6 0
BBX 5 5 0 0
BITMAP
F8
D8
F8
C0
F8
ENDCHAR
STARTCHAR f
ENCODING 102
SWIDTH 833 0
DWIDTH 5 0
BBX 4 6 0 0
BITMAP
F0
C0
C0
E0
C0
C0
ENDCHAR
STARTCHAR g
ENCODING 103
SWIDTH 1000 0
DWIDTH 6 0
BBX 5 7 0 -2
BITMAP
F8
D8
D8
D8
F8
18
78
ENDCHAR
STARTCHAR h
ENCODING 104
SWIDTH 1000 0
DWIDTH 6 0
BBX 5 6 0 0
BITMAP
C0
F8
D8
D8
D8
D8
ENDCHAR
STARTCHAR i
ENCODING 105
SWIDTH 500 0
DWIDTH 3 0
BBX 2 6 0 0
BITMAP
C0
00
C0
C0
C0
C0
ENDCHAR
STARTCHAR j
ENCODING 106
SWIDTH 833 0
DWIDTH 5 0
BBX 4 8 0 -2
BITMAP
30
00
30
30
30
30
30
F0
ENDCHAR
STARTCHAR k
ENCODING 107
SWIDTH 1000 0
DWIDTH 6 0
BBX 5 6 0 0
BITMAP
C0
D8
D8
F0
D8
D8
ENDCHAR
STARTCHAR l
ENCODING 108
SWIDTH 666 0
DWIDTH 4 0
BBX 3 6 0 0
BITMAP
C0
C0
C0
C0
C0
E0
ENDCHAR
STARTCHAR m
ENCODING 109
SWIDTH 1500 0
DWIDTH 9 0
BBX 8 5 0 0
BITMAP
E7
DB
DB
DB
C3
ENDCHAR
STARTCHAR n
ENCODING 110
SWIDTH 1000 0
DWIDTH 6 0
BBX 5 5 0 0
BITMAP
F8
D8
D8
D8
D8
ENDCHAR
STARTCHAR o
ENCODING 111
SWIDTH 1000 0
DWIDTH 6 0
BBX 5 5 0 0
BITMAP
F8
D8
D8
D8
F8
ENDCHAR
STARTCHAR p
ENCODING 112
SWIDTH 1000 0
DWIDTH 6 0
BBX 5 7 0 -2
BITMAP
F8
D8
D8
D8
F8
C0
C0
ENDCHAR
STARTCHAR q
ENCODING 113
SWIDTH 1000 0
DWIDTH 6 0
BBX 5 7 0 -2
BITMAP
F8
D8
D8
D8
F8
18
18
ENDCHAR
STARTCHAR r
ENCODING 114
SWIDTH 833 0
DWIDTH 5 0
BBX 4 5 0 0
BITMAP
F0
C0
C0
C0
C0
ENDCHAR
STARTCHAR s
ENCODING 115
SWIDTH 833 0
DWIDTH 5 0
BBX 4 5 0 0
BITMAP
F0
C0
F0
30
F0
ENDCHAR
STARTCHAR t
ENCODING 116
SWIDTH 833 0
DWIDTH 5 0
BBX 4 6 0 0
BITMAP
C0
E0
C0
C0
C0
F0
ENDCHAR
STARTCHAR u
ENCODING 117
SWIDTH 1000 0
DWIDTH 6 0
BBX 5 5 0 0
BITMAP
D8
D8
D8
D8
F8
ENDCHAR
STARTCHAR v
ENCODING 118
SWIDTH 1166 0
DWIDTH 7 0
BBX 6 5 0 0
BITMAP
CC
CC
D8
F0
E0
ENDCHAR
STARTCHAR w
ENCODING 119
SWIDTH 1500 0
DWIDTH 9 0
BBX 8 5 0 0
BITMAP
C3
DB
DB
DB
E7
ENDCHAR
STARTCHAR x
ENCODING 120
SWIDTH 1000 0
DWIDTH 6 0
BBX 5 5 0 0
BITMAP
D8
D8
70
D8
D8
ENDCHAR
STARTCHAR y
ENCODING 121
SWIDTH 1000 0
DWIDTH 6 0
BBX 5 7 0 -2
BITMAP
D8
D8
D8
D8
F8
18
78
ENDCHAR
STARTCHAR z
ENCODING 122
SWIDTH 833 0
DWIDTH 5 0
BBX 4 5 0 0
BITMAP
F0
30
F0
C0
F0
ENDCHAR
STARTCHAR braceleft
ENCODING 123
SWIDTH 833 0
DWIDTH 5 0
BBX 4 7 0 -1
BITMAP
70
60
60
C0
60
60
70
ENDCHAR
STARTCHAR bar
ENCODING 124
SWIDTH 500 0
DWIDTH 3 0
BBX 2 7 0 -1
BITMAP
C0
C0
C0
C0
C0
C0
C0
ENDCHAR
STARTCHAR braceright
ENCODING 125
SWIDTH 833 0
DWIDTH 5 0
BBX 4 7 0 -1
BITMAP
E0
60
60
30
60
60
E0
ENDCHAR
STARTCHAR asciitilde
ENCODING 126
SWIDTH 1166 0
DWIDTH 7 0
BBX 6 3 0 3
BITMAP
E4
D4
CC
ENDCHAR
STARTCHAR exclamdown
ENCODING 161
SWIDTH 500 0
DWIDTH 3 0
BBX 2 6 0 0
BITMAP
C0
00
C0
C0
C0
C0
ENDCHAR
STARTCHAR questiondown
ENCODING 191
SWIDTH 1000 0
DWIDTH 6 0
BBX 5 6 0 0
BITMAP
30
00
F0
C0
C0
F8
ENDCHAR
STARTCHAR Agrave
ENCODING 192
SWIDTH 1000 0
DWIDTH 6 0
BBX 5 9 0 0
BITMAP
60
30
00
F8
D8
D8
F8
D8
D8
ENDCHAR
STARTCHAR Aacute
ENCODING 193
SWIDTH 1000 0
DWIDTH 6 0
BBX 5 9 0 0
BITMAP
30
60
00
F8
D8
D8
F8
D8
D8
ENDCHAR
STARTCHAR Acircumflex
ENCODING 194
SWIDTH 1000 0
DWIDTH 6 0
BBX 5 9 0 0
BITMAP
38
58
00
F8
D8
D8
F8
D8
D8
ENDCHAR
STARTCHAR Atilde
ENCODING 195
SWIDTH 1000 0
DWIDTH 6 0
BBX 5 9 0 0
BITMAP
E8
D8
00
F8
D8
D8
F8
D8
D8
ENDCHAR
STARTCHAR Adieresis
ENCODING 196
SWIDTH 1000 0
DWIDTH 6 0
BBX 5 8 0 0
BITMAP
D8
00
F8
D8
D8
F8
D8
D8
ENDCHAR
STARTCHAR Aring
ENCODING 197
SWIDTH 1000 0
DWIDTH 6 0
BBX 5 9 0 0
BITMAP
78
D8
F0
F8
D8
D8
F8
D8
D8
ENDCHAR
STARTCHAR AE
ENCODING 198
SWIDTH 1500 0
DWIDTH 9 0
BBX 8 6 0 0
BITMAP
FF
D8
DE
F8
D8
DF
ENDCHAR
STARTCHAR Ccedilla
ENCODING 199
SWIDTH 1000 0
DWIDTH 6 0
BBX 5 7 0 -1
BITMAP
F8
D8
C0
C0
D8
F8
20
ENDCHAR
STARTCHAR Egrave
ENCODING 200
SWIDTH 1000 0
DWIDTH 6 0
BBX 5 9 0 0
BITMAP
60
30
00
F8
C0
F0
C0
C0
F8
ENDCHAR
STARTCHAR Eacute
ENCODING 201
SWIDTH 1000 0
DWIDTH 6 0
BBX 5 9 0 0
BITMAP
30
60
00
F8
C0
F0
C0
C0
F8
ENDCHAR
STARTCHAR Ecircumflex
ENCODING 202
SWIDTH 1000 0
DWIDTH 6 0
BBX 5 9 0 0
BITMAP
38
58
00
F8
C0
F0
C0
C0
F8
ENDCHAR
STARTCHAR Edieresis
ENCODING 203
SWIDTH 1000 0
DWIDTH 6 0
BBX 5 8 0 0
BITMAP
D8
00
F8
C0
F0
C0
C0
F8
ENDCHAR
STARTCHAR Igrave
ENCODING 204
SWIDTH 833 0
DWIDTH 5 0
BBX 4 9 0 0
BITMAP
C0
60
00
F0
60
60
60
60
F0
ENDCHAR
STARTCHAR Iacute
ENCODING 205
SWIDTH 833 0
DWIDTH 5 0
BBX 4 9 0 0
BITMAP
30
60
00
F0
60
60
60
60
F0
ENDCHAR
STARTCHAR Icircumflex
ENCODING 206
SWIDTH 833 0
DWIDTH 5 0
BBX 4 9 0 0
BITMAP
70
B0
00
F0
60
60
60
60
F0
ENDCHAR
STARTCHAR Idieresis
ENCODING 207
SWIDTH 833 0
DWIDTH 5 0
BBX 4 8 0 0
BITMAP
D0
00
F0
60
60
60
60
F0
ENDCHAR
STARTCHAR Eth
ENCODING 208
SWIDTH 1166 0
DWIDTH 7 0
BBX 6 6 0 0
BITMAP
78
6C
6C
FC
6C
7C
ENDCHAR
STARTCHAR Ntilde
ENCODING 209
SWIDTH 1000 0
DWIDTH 6 0
BBX 5 9 0 0
BITMAP
E8
D8
00
F8
D8
D8
D8
D8
D8
ENDCHAR
STARTCHAR Ograve
ENCODING 210
SWIDTH 1000 0
DWIDTH 6 0
BBX 5 9 0 0
BITMAP
60
30
00
F8
D8
D8
D8
D8
F8
ENDCHAR
STARTCHAR Oacute
ENCODING 211
SWIDTH 1000 0
DWIDTH 6 0
BBX 5 9 0 0
BITMAP
30
60
00
F8
D8
D8
D8
D8
F8
ENDCHAR
STARTCHAR Ocircumflex
ENCODING 212
SWIDTH 1000 0
DWIDTH 6 0
BBX 5 9 0 0
BITMAP
38
58
00
F8
D8
D8
D8
D8
F8
ENDCHAR
STARTCHAR Otilde
ENCODING 213
SWIDTH 1000 0
DWIDTH 6 0
BBX 5 9 0 0
BITMAP
E8
D8
00
F8
D8
D8
D8
D8
F8
ENDCHAR
STARTCHAR Odieresis
ENCODING 214
SWIDTH 1000 0
DWIDTH 6 0
BBX 5 8 0 0
BITMAP
D8
00
F8
D8
D8
D8
D8
F8
ENDCHAR
STARTCHAR Ugrave
ENCODING 217
SWIDTH 1000 0
DWIDTH 6 0
BBX 5 9 0 0
BITMAP
60
30
00
D8
D8
D8
D8
D8
F8
ENDCHAR
STARTCHAR Uacute
ENCODING 218
SWIDTH 1000 0
DWIDTH 6 0
BBX 5 9 0 0
BITMAP
30
60
00
D8
D8
D8
D8
D8
F8
ENDCHAR
STARTCHAR Ucircumflex
ENCODING 219
SWIDTH 1000 0
DWIDTH 6 0
BBX 5 9 0 0
BITMAP
38
58
00
D8
D8
D8
D8
D8
F8
ENDCHAR
STARTCHAR Udieresis
ENCODING 220
SWIDTH 1000 0
DWIDTH 6 0
BBX 5 8 0 0
BITMAP
D8
00
D8
D8
D8
D8
D8
F8
ENDCHAR
STARTCHAR Yacute
ENCODING 221
SWIDTH 1166 0
DWIDTH 7 0
BBX 6 9 0 0
BITMAP
18
30
00
CC
CC
FC
30
30
30
ENDCHAR
STARTCHAR Thorn
ENCODING 222
SWIDTH 1000 0
DWIDTH 6 0
BBX 5 7 0 -1
BITMAP
C0
F8
D8
D8
D8
F8
C0
ENDCHAR
STARTCHAR germandbls
ENCODING 223
SWIDTH 1333 0
DWIDTH 8 0
BBX 7 6 0 0
BITMAP
FC
CC
DC
C6
C6
DE
ENDCHAR
STARTCHAR agrave
ENCODING 224
SWIDTH 1000 0
DWIDTH 6 0
BBX 5 8 0 0
BITMAP
60
30
00
78
18
F8
D8
F8
ENDCHAR
STARTCHAR aacute
ENCODING 225
SWIDTH 1000 0
DWIDTH 6 0
BBX 5 8 0 0
BITMAP
30
60
00
78
18
F8
D8
F8
ENDCHAR
STARTCHAR acircumflex
ENCODING 226
SWIDTH 1000 0
DWIDTH 6 0
BBX 5 8 0 0
BITMAP
38
58
00
78
18
F8
D8
F8
ENDCHAR
STARTCHAR atilde
ENCODING 227
SWIDTH 1000 0
DWIDTH 6 0
BBX 5 8 0 0
BITMAP
E8
D8
00
78
18
F8
D8
F8
ENDCHAR
STARTCHAR adieresis
ENCODING 228
SWIDTH 1000 0
DWIDTH 6 0
BBX 5 7 0 0
BITMAP
D8
00
78
18
F8
D8
F8
ENDCHAR
STARTCHAR aring
ENCODING 229
SWIDTH 1000 0
DWIDTH 6 0
BBX 5 9 0 0
BITMAP
78
D8
F0
00
78
18
F8
D8
F8
ENDCHAR
STARTCHAR ae
ENCODING 230
SWIDTH 1500 0
DWIDTH 9 0
BBX 8 5 0 0
BITMAP
7F
1B
FF
D8
FF
ENDCHAR
STARTCHAR ccedilla
ENCODING 231
SWIDTH 1000 0
DWIDTH 6 0
BBX 5 6 0 -1
BITMAP
F0
C0
C0
C0
F8
20
ENDCHAR
STARTCHAR egrave
ENCODING 232
SWIDTH 1000 0
DWIDTH 6 0
BBX 5 8 0 0
BITMAP
60
30
00
F8
D8
F8
C0
F8
ENDCHAR
STARTCHAR eacute
ENCODING 233
SWIDTH 1000 0
DWIDTH 6 0
BBX 5 8 0 0
BITMAP
30
60
00
F8
D8
F8
C0
F8
ENDCHAR
STARTCHAR ecircumflex
ENCODING 234
SWIDTH 1000 0
DWIDTH 6 0
BBX 5 8 0 0
BITMAP
38
58
00
F8
D8
F8
C0
F8
ENDCHAR
STARTCHAR edieresis
ENCODING 235
SWIDTH 1000 0
DWIDTH 6 0
BBX 5 7 0 0
BITMAP
D8
00
F8
D8
F8
C0
F8
ENDCHAR
STARTCHAR igrave
ENCODING 236
SWIDTH 666 0
DWIDTH 4 0
BBX 3 7 0 0
BITMAP
C0
60
00
60
60
60
60
ENDCHAR
STARTCHAR iacute
ENCODING 237
SWIDTH 666 0
DWIDTH 4 0
BBX 3 7 0 0
BITMAP
60
C0
00
C0
C0
C0
C0
ENDCHAR
STARTCHAR icircumflex
ENCODING 238
SWIDTH 833 0
DWIDTH 5 0
BBX 4 7 0 0
BITMAP
70
B0
00
60
60
60
60
ENDCHAR
STARTCHAR idieresis
ENCODING 239
SWIDTH 833 0
DWIDTH 5 0
BBX 4 6 0 0
BITMAP
D0
00
60
60
60
60
ENDCHAR
STARTCHAR eth
ENCODING 240
SWIDTH 1166 0
DWIDTH 7 0
BBX 6 6 0 0
BITMAP
18
F8
DC
D8
D8
F8
ENDCHAR
STARTCHAR ntilde
ENCODING 241
SWIDTH 1000 0
DWIDTH 6 0
BBX 5 8 0 0
BITMAP
E8
D8
00
F8
D8
D8
D8
D8
ENDCHAR
STARTCHAR ograve
ENCODING 242
SWIDTH 1000 0
DWIDTH 6 0
BBX 5 8 0 0
BITMAP
60
30
00
F8
D8
D8
D8
F8
ENDCHAR
STARTCHAR oacute
ENCODING 243
SWIDTH 1000 0
DWIDTH 6 0
BBX 5 8 0 0
BITMAP
30
60
00
F8
D8
D8
D8
F8
ENDCHAR
STARTCHAR ocircumflex
ENCODING 244
SWIDTH 1000 0
DWIDTH 6 0
BBX 5 8 0 0
BITMAP
38
58
00
F8
D8
D8
D8
F8
ENDCHAR
STARTCHAR otilde
ENCODING 245
SWIDTH 1000 0
DWIDTH 6 0
BBX 5 8 0 0
BITMAP
E8
D8
00
F8
D8
D8
D8
F8
ENDCHAR
STARTCHAR odieresis
ENCODING 246
SWIDTH 1000 0
DWIDTH 6 0
BBX 5 7 0 0
BITMAP
D8
00
F8
D8
D8
D8
F8
ENDCHAR
STARTCHAR ugrave
ENCODING 249
SWIDTH 1000 0
DWIDTH 6 0
BBX 5 8 0 0
BITMAP
60
30
00
D8
D8
D8
D8
F8
ENDCHAR
STARTCHAR uacute
ENCODING 250
SWIDTH 1000 0
DWIDTH 6 0
BBX 5 8 0 0
BITMAP
30
60
00
D8
D8
D8
D8
F8
ENDCHAR
STARTCHAR ucircumflex
ENCODING 251
SWIDTH 1000 0
DWIDTH 6 0
BBX 5 8 0 0
BITMAP
38
58
00
D8
D8
D8
D8
F8
ENDCHAR
STARTCHAR udieresis
ENCODING 252
SWIDTH 1000 0
DWIDTH 6 0
BBX 5 7 0 0
BITMAP
D8
00
D8
D8
D8
D8
F8
ENDCHAR
STARTCHAR yacute
ENCODING 253
SWIDTH 1000 0
DWIDTH 6 0
BBX 5 10 0 -2
BITMAP
30
60
00
D8
D8
D8
D8
F8
18
78
ENDCHAR
STARTCHAR thorn
ENCODING 254
SWIDTH 1166 0
DWIDTH 7 0
BBX 6 7 0 -1
BITMAP
C0
FC
CC
CC
CC
FC
C0
ENDCHAR
STARTCHAR ydieresis
ENCODING 255
SWIDTH 1000 0
DWIDTH 6 0
BBX 5 9 0 -2
BITMAP
D8
00
D8
D8
D8
D8
F8
18
78
ENDCHAR
STARTCHAR OE
ENCODING 338
SWIDTH 1500 0
DWIDTH 9 0
BBX 8 6 0 0
BITMAP
FF
D8
DE
D8
D8
FF
ENDCHAR
STARTCHAR oe
ENCODING 339
SWIDTH 1500 0
DWIDTH 9 0
BBX 8 5 0 0
BITMAP
FF
D9
DF
D8
FF
ENDCHAR
STARTCHAR Ydieresis
ENCODING 376
SWIDTH 1166 0
DWIDTH 7 0
BBX 6 8 0 0
BITMAP
CC
00
CC
CC
FC
30
30
30
ENDCHAR
STARTCHAR Ygrave
ENCODING 7922
SWIDTH 1166 0
DWIDTH 7 0
BBX 6 9 0 0
BITMAP
60
30
00
CC
CC
FC
30
30
30
ENDCHAR
STARTCHAR ygrave
ENCODING 7923
SWIDTH 1000 0
DWIDTH 6 0
BBX 5 10 0 -2
BITMAP
60
30
00
D8
D8
D8
D8
78
18
78
ENDCHAR
STARTCHAR uni220E
ENCODING 8718
SWIDTH 1000 0
DWIDTH 6 0
BBX 5 6 0 0
BITMAP
F8
F8
F8
F8
F8
F8
ENDCHAR
STARTCHAR .notdef
ENCODING -1
SWIDTH 166 0
DWIDTH 1 0
BBX 1 1 0 0
BITMAP
00
ENDCHAR
ENDFONT
